<svg width="512" height="512" viewBox="0 0 512 512" fill="none" xmlns="http://www.w3.org/2000/svg">
<g clip-path="url(#clip0_1_9614)">
<path d="M261.07 477.984C258.754 477.984 256.454 477.933 254.16 477.849C253.588 477.829 251.698 477.73 251.698 477.73C250.231 477.656 248.803 477.574 247.379 477.471C246.37 477.399 245.346 477.313 244.32 477.223C243.114 477.114 241.928 476.995 240.742 476.868C239.579 476.743 238.471 476.622 237.371 476.482L236.714 476.408C236.38 476.365 236.021 476.309 235.662 476.25L235.42 476.213C233.36 475.93 231.346 475.628 229.343 475.288C228.373 475.124 227.386 474.941 226.401 474.759C224.698 474.441 223.028 474.105 221.367 473.746L221.059 473.68C220.136 473.481 219.213 473.28 218.298 473.065C216.556 472.661 214.808 472.216 213.069 471.754L212.357 471.571C211.748 471.415 211.143 471.259 210.537 471.091C207.745 470.31 205.246 469.558 202.895 468.791C201.547 468.37 200.074 467.86 198.624 467.345C194.699 465.96 190.802 464.43 187.053 462.801C166.988 454.24 148.631 442.234 132.569 427.154C128.817 423.664 125.057 419.83 121.437 415.795C121.048 415.366 120.659 414.933 120.271 414.494C107.292 411.068 104.542 409.628 102.423 408.145C96.209 403.794 88.028 391.747 83.231 384.138C73.413 379.062 66.365 367.683 63.341 360.121L39.84 347.465C38.862 346.938 37.959 346.285 37.152 345.522L3.94203 314.1C1.39403 311.69 -0.0349697 308.325 0.00103034 304.817C0.0360303 301.309 1.53203 297.975 4.12803 295.616L8.50303 291.64C10.281 290.025 12.397 289.01 14.601 288.589C14.848 288.39 15.104 288.197 15.368 288.015C17.781 286.374 20.46 285.549 23.236 285.549C23.452 285.549 23.669 285.555 23.884 285.565C25.553 283.155 27.997 281.255 30.997 280.295C32.442 279.85 33.811 279.643 35.19 279.643C41.218 279.643 46.493 283.5 48.318 289.242L55.29 311.169L73.226 294.572C73.192 293.111 73.176 291.622 73.176 290.089C73.176 257.035 81.858 224.614 98.304 196.159C98.304 196.159 105.855 147.045 105.881 146.903C106.246 144.971 107.087 142.997 108.282 141.434C115.47 132.034 124.06 130.062 130.003 130.062C137.353 130.062 143.612 133.061 147.741 135.745C148.117 135.357 148.501 134.976 148.893 134.604C143.243 121.353 143.244 105.312 149.491 91.3269C156.574 75.4729 171.039 62.5629 189.178 55.9089C195.195 53.7009 201.266 52.2929 207.301 51.7029C207.559 50.0629 207.92 48.4429 208.382 46.8529C208.957 44.8739 210.001 41.9219 212.424 39.2249C215.399 35.9139 219.594 34.0149 223.933 34.0149C225.363 34.0149 226.78 34.2209 228.143 34.6289C229.696 35.0929 231.497 35.9019 233.233 37.3079C234.923 36.7479 236.706 36.4539 238.524 36.4539C243.796 36.4539 248.769 38.8649 252.042 42.9529C253.997 42.2549 255.952 41.6289 257.907 41.0779C264.429 39.2399 270.364 38.3449 276.051 38.3449C278.646 38.3449 281.206 38.5389 283.66 38.9199C295.885 40.8179 307.064 47.6509 314.333 57.6659C320.071 65.5799 323.284 74.4259 323.721 83.2499C339.397 94.3729 350.721 110.246 355.091 127.344C369.507 135.689 382.711 145.892 394.481 157.777C418.64 148.042 441.41 138.923 441.41 138.923C442.914 138.32 444.506 138.018 446.096 138.018C447.854 138.018 449.608 138.385 451.245 139.118C454.361 140.513 456.778 143.112 457.943 146.323L458.039 146.586C461.005 148.09 463.264 150.712 464.311 153.89L511.367 296.979C513.527 303.55 509.988 310.636 503.434 312.854L444.048 332.963C442.84 338.16 441.424 343.264 439.818 348.208C436.761 357.602 432.997 366.688 428.631 375.219C423.917 384.494 418.345 393.484 412.087 401.908C411.843 402.249 411.505 402.694 411.164 403.139C402.974 414.023 393.547 424.04 383.206 432.839C376.459 438.651 369.118 444.09 361.447 448.948C348.307 457.285 334.1 463.965 319.228 468.794C317.244 469.436 315.258 470.035 313.264 470.612C312.546 470.819 311.816 471.02 311.087 471.221C309.614 471.629 308.125 472.017 306.629 472.392C306.629 472.392 305.185 472.759 304.76 472.86C302.981 473.285 301.17 473.693 299.342 474.068C299.227 474.093 299.024 474.129 298.864 474.158C295.859 474.771 293.007 475.286 290.266 475.713L288.943 475.898C286.573 476.253 284.105 476.571 281.633 476.842C280.749 476.938 279.858 477.023 278.966 477.107C276.849 477.308 274.711 477.472 272.565 477.601L271.853 477.646C271.211 477.687 270.571 477.728 269.927 477.757C266.697 477.91 263.792 477.984 261.07 477.984Z" fill="white"/>
<path d="M437.988 290.09C437.988 309.018 434.984 327.253 429.438 344.311C426.602 353.029 423.136 361.432 419.018 369.478C414.564 378.238 409.396 386.557 403.577 394.393C403.304 394.771 403.031 395.128 402.758 395.485C395.09 405.674 386.33 415.001 376.645 423.236C370.259 428.74 363.473 433.761 356.309 438.299C344.125 446.03 330.911 452.269 316.94 456.807C310.911 458.761 304.734 460.42 298.411 461.723C286.878 464.118 274.924 465.378 262.677 465.378C254.967 465.378 247.383 464.874 239.947 463.907C229.086 462.52 218.54 460.105 208.414 456.806C207.069 456.386 205.746 455.924 204.444 455.462C200.81 454.18 197.217 452.773 193.688 451.239C174.781 443.172 157.597 431.849 142.807 417.963C139.194 414.602 135.727 411.051 132.429 407.375C131.211 406.03 130.034 404.686 128.858 403.299C126.925 401.009 125.035 398.677 123.207 396.282C118.081 389.559 113.417 382.438 109.3 375.001C109.279 374.98 109.279 374.98 109.279 374.98C108.124 372.879 106.989 370.736 105.918 368.573C105.75 368.258 105.603 367.922 105.435 367.607C104.301 365.317 103.229 363.006 102.179 360.653C101.801 359.792 101.423 358.93 101.087 358.048C100.247 356.115 99.4691 354.183 98.7341 352.229C96.6541 346.788 94.8691 341.221 93.3561 335.528C90.6461 325.423 88.8181 314.982 87.9781 304.247C87.8521 302.797 87.7471 301.348 87.6631 299.877C87.4741 296.642 87.3901 293.386 87.3901 290.087C87.3901 235.004 112.788 185.867 152.514 153.725C159.825 147.801 167.619 142.465 175.833 137.78C187.303 131.204 199.614 125.911 212.534 122.066C221.609 119.356 231 117.36 240.642 116.142C247.869 115.239 255.221 114.777 262.679 114.777C276.166 114.777 289.275 116.29 301.88 119.189C317.3 122.697 331.942 128.243 345.513 135.533C400.552 165.115 437.988 223.222 437.988 290.09Z" fill="#FFA9DD"/>
<path d="M376.645 421.423C370.259 426.927 304.721 460.423 298.413 461.731C286.873 464.124 274.916 465.379 262.677 465.379C254.972 465.379 247.385 464.882 239.945 463.919C229.089 462.513 203.678 449.022 200.148 447.488C203.446 439.358 201.46 432.082 206.229 420.234C212.762 404.142 219.821 386.6 225.22 372.987C227.027 368.428 228.644 364.311 229.989 360.824C231.123 357.883 232.426 354.29 233.854 350.173C234.988 346.875 236.207 343.24 237.488 339.354C249.547 302.779 266.416 244.861 268.559 237.508C268.685 237.004 268.769 236.731 268.769 236.731L300.176 219.042C300.176 219.042 319.293 220.618 346.309 262.381C371.183 300.825 375.847 383 376.645 421.423Z" fill="#BD6EEB"/>
<path d="M50.336 337.148C49.964 337.148 49.6 336.97 49.376 336.645L23.887 299.986C23.519 299.457 23.649 298.728 24.179 298.359C24.71 297.998 25.437 298.125 25.805 298.652L46.877 328.957L35.688 293.77C35.492 293.155 35.832 292.498 36.447 292.301C37.065 292.11 37.719 292.447 37.914 293.06L51.448 335.623C51.623 336.175 51.37 336.77 50.851 337.026C50.686 337.109 50.51 337.148 50.336 337.148Z" fill="#FFE9DC"/>
<path d="M47.424 336.366L14.2141 304.945L18.5891 300.968L50.805 333.98L47.424 336.366Z" fill="#7182FF"/>
<path d="M50.8051 333.98L120.01 269.945L238.931 328.014L174.896 398.412L50.8051 333.98Z" fill="#FFE9DC"/>
<path d="M47.4241 336.366L179.271 407.361L241.914 341.736L121.998 277.303L47.4241 336.366Z" fill="#7182FF"/>
<path d="M260.408 372.758L167.936 373.355C167.936 373.355 133.93 330.997 131.544 335.77C129.158 340.543 140.891 371.367 140.891 371.367C140.891 371.367 74.6691 347.702 75.8621 353.071C77.0551 358.44 85.0101 372.162 93.3621 373.952C93.3621 373.952 105.294 393.64 111.26 397.816C117.226 401.992 195.976 418.697 217.454 422.276C238.931 425.856 277.113 433.611 293.818 415.714C310.523 397.816 316.489 378.725 316.489 378.725L260.408 372.758Z" fill="#FF8C9D"/>
<path d="M300.38 264.775C300.38 264.775 268.164 271.934 259.812 303.553C251.46 335.172 234.755 372.161 234.755 372.161L333.193 391.849C333.193 391.849 367.795 271.934 300.38 264.775Z" fill="#BD6EEB"/>
<path d="M324.442 389.545C324.425 389.545 324.409 389.544 324.391 389.54L238.083 373.631C237.937 373.605 237.838 373.468 237.854 373.321C237.884 373.071 240.939 347.941 249.402 322.505C257.229 298.976 271.421 270.364 294.58 267.676C294.738 267.662 294.874 267.769 294.892 267.924C294.91 268.078 294.799 268.218 294.644 268.236C271.782 270.889 257.714 299.304 249.937 322.675C241.956 346.664 238.794 370.382 238.446 373.126L324.493 388.987C324.645 389.015 324.747 389.162 324.718 389.315C324.694 389.451 324.575 389.545 324.442 389.545Z" fill="#512651"/>
<path d="M235.084 69.9589C233.204 67.3629 229.994 66.1079 226.885 65.3279C216.432 62.7069 205.244 64.0309 195.127 67.7419C181.18 72.8589 168.667 82.9019 162.609 96.4669C156.551 110.031 157.831 127.134 167.482 138.427C159.277 141.583 152.575 149.731 151.292 158.428C150.009 167.125 153.729 176.385 160.672 181.776C164.789 184.973 169.823 186.808 174.928 187.863C181.469 189.215 188.363 189.34 194.751 187.388C207.054 183.63 215.881 172.794 222.03 161.494C236.839 134.284 253.257 95.0499 235.084 69.9589Z" fill="#512651"/>
<path d="M310.527 182.049C308.144 213.08 260.406 232.567 232.973 234.554C210.377 236.19 192.362 214.903 182.057 177.586L182.074 171.82L179.346 166.674C178.271 161.814 177.313 156.72 176.495 151.416C168.13 98.1171 229.374 82.6251 229.374 82.6251C229.374 82.6251 265.172 76.6431 284.262 91.364C303.353 106.084 312.91 151.018 310.527 182.049Z" fill="#FF8C9D"/>
<path d="M262.795 216.252L269.159 239.718C269.159 239.718 289.841 236.536 300.182 219.036L287.852 183.24L262.795 216.252Z" fill="#FF8C9D"/>
<path d="M216.552 84.3658C211.41 90.9028 208.147 99.0768 208.279 107.393C208.411 115.708 212.164 124.078 218.835 129.044C225.506 134.011 235.082 135.114 242.35 131.071C240.763 137.328 239.08 143.809 241.091 149.943C242.353 153.794 244.972 157.11 248.138 159.64C252.629 163.228 258.342 165.332 264.09 165.23C269.837 165.128 275.565 162.758 279.505 158.573C278.966 168.56 280.612 177.071 283.652 186.6C285.573 192.622 288.301 198.586 292.91 202.912C297.519 207.238 304.323 209.643 310.338 207.7C315.02 206.189 318.637 202.274 320.783 197.847C322.929 193.42 323.774 188.486 324.38 183.604C340.406 173.549 348.673 152.636 345.268 134.026C341.863 115.416 328.762 99.4218 312.408 89.9108C313.853 81.0438 311.013 72.3448 305.738 65.0728C300.463 57.8008 292.212 52.7568 283.334 51.3788C276.535 50.3228 269.558 51.3458 262.936 53.2128C245.516 58.1218 227.742 70.1408 216.552 84.3658Z" fill="#512651"/>
<path d="M225.901 74.077C221.118 67.268 219.788 58.311 222.095 50.372C222.379 49.396 222.731 48.407 223.41 47.65C224.089 46.893 225.167 46.416 226.141 46.707C227.305 47.055 227.918 48.304 228.339 49.444C229.949 53.811 230.733 58.48 230.639 63.134C231.761 59.39 233.348 55.555 235.526 52.309C235.898 51.754 236.302 51.216 236.735 50.701C239.972 46.851 246.19 50.387 244.462 55.11C244.451 55.141 244.439 55.172 244.428 55.203C242.083 61.564 238.948 67.696 234.572 72.874C233.39 74.272 232.013 75.663 230.212 76.043C228.54 76.395 226.884 75.476 225.901 74.077Z" fill="#512651"/>
<path d="M220.459 176.949C221.276 179.589 224.079 181.067 226.719 180.25C229.359 179.433 230.837 176.63 230.02 173.99C229.203 171.35 226.4 169.872 223.759 170.689C221.119 171.506 219.642 174.309 220.459 176.949Z" fill="#512651"/>
<path d="M186.249 188.312C187.066 190.952 189.869 192.43 192.509 191.613C195.149 190.796 196.627 187.993 195.81 185.352C194.992 182.712 192.19 181.234 189.549 182.051C186.91 182.869 185.432 185.672 186.249 188.312Z" fill="#512651"/>
<path d="M217.614 199.94C217.504 199.94 217.4 199.875 217.354 199.768C217.032 198.999 217.264 198.056 217.908 197.525C218.552 196.994 219.523 196.945 220.215 197.407C220.344 197.493 220.38 197.668 220.294 197.797C220.207 197.926 220.034 197.962 219.904 197.875C219.418 197.552 218.713 197.588 218.267 197.959C217.817 198.329 217.648 199.013 217.873 199.55C217.933 199.694 217.866 199.858 217.722 199.919C217.687 199.933 217.65 199.94 217.614 199.94Z" fill="#512651"/>
<path d="M210.717 202.789C207.321 202.789 204.378 200.185 202.978 197.549C201.288 194.369 200.991 190.61 200.73 187.294L200.284 181.612C200.271 181.457 200.387 181.321 200.542 181.309C200.7 181.294 200.833 181.413 200.844 181.567L201.29 187.249C201.547 190.511 201.839 194.207 203.475 197.284C204.918 200.002 208.097 202.689 211.612 202.16C211.778 202.138 211.909 202.244 211.933 202.397C211.956 202.551 211.849 202.694 211.696 202.717C211.365 202.766 211.039 202.789 210.717 202.789Z" fill="#512651"/>
<path d="M218.177 208.666C217.222 208.666 216.268 208.515 215.36 208.208C215.213 208.158 215.134 207.998 215.183 207.851C215.233 207.704 215.394 207.628 215.54 207.675C217.829 208.448 220.429 208.165 222.497 206.915C224.564 205.664 226.023 203.493 226.4 201.107C226.424 200.953 226.558 200.85 226.722 200.873C226.875 200.898 226.98 201.042 226.955 201.195C226.554 203.743 224.996 206.061 222.789 207.397C221.402 208.234 219.79 208.666 218.177 208.666Z" fill="#512651"/>
<path d="M214.918 155.209C213.716 157.42 214.417 160.654 216.709 161.693C217.278 161.951 217.901 162.067 218.522 162.144C221.551 162.517 224.688 161.969 227.411 160.59C229.176 159.697 230.89 158.263 231.184 156.307C231.51 154.144 229.869 152.019 227.811 151.278C224.298 150.014 216.815 151.718 214.918 155.209Z" fill="#512651"/>
<path d="M187.385 173.777C185.913 175.413 184.067 176.721 182.057 177.586C181.076 174.081 180.164 170.459 179.347 166.674C181.123 165.646 182.969 164.992 184.418 164.945C186.614 164.898 188.904 166.3 189.372 168.427C189.792 170.366 188.717 172.305 187.385 173.777Z" fill="#512651"/>
<path d="M290.816 150.711C297.51 154.337 300.888 162.82 299.24 170.253C297.592 177.685 291.438 183.732 284.179 186.026C281.664 186.821 278.895 187.199 276.413 186.305C271.786 184.638 268.721 178.822 267.564 174.323C266.416 169.858 268.251 166.854 270.201 162.963C272.433 158.508 273.571 152.864 278.326 150.372C282.144 148.37 287.078 148.686 290.816 150.711Z" fill="#FF8C9D"/>
<path d="M279.434 174.668C279.428 174.668 279.423 174.668 279.417 174.667C279.261 174.658 279.143 174.525 279.152 174.37C279.528 168.154 282.388 162.189 287 158.004C287.115 157.898 287.294 157.908 287.397 158.023C287.501 158.138 287.493 158.316 287.378 158.42C282.874 162.508 280.08 168.333 279.714 174.403C279.706 174.553 279.583 174.668 279.434 174.668Z" fill="#512651"/>
<path d="M451.54 161.194L371.349 196.832L349.646 201.891L340.985 203.344C340.985 203.344 341.551 197.333 344.644 192.695H344.663C346.544 191.679 348.782 190.607 351.433 189.517C374.603 179.907 447.703 150.625 447.703 150.625L451.54 161.194Z" fill="#512651"/>
<path d="M343.667 194.481L443.221 153.667L449.623 168.232L349.429 211.127L343.667 194.481Z" fill="#FFE9DC"/>
<path d="M349.647 201.892C345.563 202.763 340.575 203.283 335.153 203.634C335.153 203.634 330.953 200.087 344.644 192.696C344.381 193.787 344.569 195.066 344.945 196.156C345.528 197.849 346.468 199.428 347.804 200.632C348.349 201.139 348.97 201.572 349.647 201.892Z" fill="#FFB289"/>
<path d="M334.543 202.484C334.543 202.484 341.024 204.682 354.39 200.243C367.757 195.805 453.944 157.828 453.944 157.828L501 300.917L391.767 337.902C384.78 340.268 377.213 336.431 374.992 329.397L334.543 202.484Z" fill="#F7607D"/>
<path d="M388.642 339.085C388.543 339.085 388.451 339.022 388.418 338.923L344.243 202.557C344.203 202.433 344.272 202.301 344.395 202.26C344.521 202.225 344.651 202.289 344.691 202.411L388.866 338.777C388.906 338.901 388.838 339.033 388.715 339.074C388.691 339.082 388.666 339.085 388.642 339.085Z" fill="#FFB289"/>
<path d="M342.075 196.906C342.015 196.906 341.958 196.87 341.934 196.811C341.902 196.733 341.939 196.643 342.017 196.611L444.106 154.775C444.185 154.743 444.275 154.781 444.306 154.859C444.338 154.937 444.301 155.027 444.223 155.059L342.133 196.895C342.114 196.902 342.094 196.906 342.075 196.906Z" fill="#FFB289"/>
<path d="M343.148 199.052C343.087 199.052 343.031 199.016 343.006 198.956C342.975 198.878 343.012 198.788 343.091 198.757L445.001 157.456C445.081 157.423 445.167 157.461 445.201 157.54C445.232 157.618 445.195 157.708 445.116 157.739L343.206 199.04C343.186 199.048 343.167 199.052 343.148 199.052Z" fill="#FFB289"/>
<path d="M344.935 201.197C344.875 201.197 344.818 201.161 344.794 201.102C344.762 201.024 344.799 200.935 344.876 200.902L445.714 159.422C445.794 159.391 445.883 159.428 445.914 159.506C445.946 159.584 445.909 159.674 445.831 159.706L344.993 201.186C344.974 201.194 344.954 201.197 344.935 201.197Z" fill="#FFB289"/>
<path d="M365.317 216.956L375.687 249.496L456.5 220.532L444.342 188.708L365.317 216.956Z" fill="#FFB289"/>
<path d="M115.76 262.941L104.526 249.312L104.506 249.253L119.876 149.245L119.905 149.093C130.822 134.813 145.721 148.794 145.721 148.794L145.592 149.675L131.287 251.565L115.76 262.941Z" fill="#BD6EEB"/>
<path d="M114.107 277.912L110.025 265.732L104.526 249.311L109.347 254.067L118.095 247.969L124.897 254.824L131.287 251.565L121.495 266.596L114.107 277.912Z" fill="#FFB289"/>
<path d="M114.107 277.912L110.025 265.732C110.293 265.61 110.574 265.498 110.845 265.401C113.809 264.401 118.321 264.823 121.495 266.596L114.107 277.912Z" fill="#512651"/>
<path d="M124.897 254.949C124.891 254.949 124.885 254.949 124.878 254.948C124.81 254.939 124.762 254.874 124.773 254.804L140.286 152.322C140.297 152.253 140.345 152.202 140.43 152.217C140.498 152.227 140.546 152.291 140.535 152.361L125.022 254.843C125.012 254.905 124.958 254.949 124.897 254.949Z" fill="#512651"/>
<path d="M118.095 248.095C118.089 248.095 118.083 248.094 118.076 248.094C118.008 248.083 117.96 248.019 117.971 247.95L132.092 153.101C132.102 153.032 132.148 152.986 132.236 152.995C132.304 153.006 132.352 153.07 132.341 153.139L118.22 247.988C118.21 248.05 118.156 248.095 118.095 248.095Z" fill="#512651"/>
<path d="M109.293 253.78C109.287 253.78 109.281 253.78 109.274 253.779C109.206 253.769 109.158 253.705 109.169 253.635L124.42 151.5C124.429 151.431 124.481 151.385 124.564 151.393C124.632 151.404 124.68 151.468 124.669 151.537L109.417 253.674C109.408 253.736 109.354 253.78 109.293 253.78Z" fill="#512651"/>
<path d="M119.876 149.244L119.905 149.092C130.822 134.812 145.721 148.793 145.721 148.793L145.592 149.674C142.254 152.218 137.923 153.24 133.72 153.098C129.417 152.944 125.256 151.636 121.299 149.918C120.827 149.709 120.341 149.49 119.876 149.244Z" fill="#FFB289"/>
<path d="M126.629 147.495L126.644 147.42C133.201 143.027 139.476 147.272 139.476 147.272L139.412 147.71C137.753 148.974 135.6 149.482 133.511 149.412C131.372 149.336 129.304 148.685 127.337 147.831C127.101 147.726 126.86 147.617 126.629 147.495Z" fill="#512651"/>
<path d="M419.018 369.479C414.564 378.239 409.396 386.558 403.577 394.394C403.304 394.772 403.031 395.129 402.758 395.486C395.09 405.675 386.33 415.002 376.645 423.237C370.259 428.741 363.473 433.762 356.309 438.3C344.125 446.031 330.911 452.27 316.94 456.808C310.911 458.762 304.734 460.421 298.411 461.724C298.894 453.636 302.487 445.737 308.285 440.044C314.188 434.246 322.36 430.78 330.637 430.548C328.284 416.788 329.209 402.229 335.973 390.045C342.758 377.839 356.371 368.911 370.237 370.403C379.711 371.411 388.178 376.979 394.837 383.764C400.803 376.348 409.732 371.895 418.954 369.5C418.976 369.5 418.997 369.479 419.018 369.479Z" fill="#FFB289"/>
<path d="M240.074 459.098C240.095 460.695 240.053 462.291 239.948 463.909C229.087 462.522 218.541 460.107 208.415 456.808C207.07 456.388 205.747 455.926 204.445 455.464C200.811 454.182 197.218 452.775 193.689 451.241C174.782 443.174 157.598 431.851 142.808 417.965C139.195 414.604 135.728 411.053 132.43 407.377C131.212 406.032 130.035 404.688 128.859 403.301C126.926 401.011 125.036 398.679 123.208 396.284C129.048 393.763 135.666 392.923 141.947 393.973C154.279 396.053 164.93 404.729 171.001 415.674C183.144 402.964 203.542 403.406 217.995 413.426C232.427 423.427 239.822 441.535 240.074 459.098Z" fill="#F7607D"/>
<path d="M175.073 249.011L177.755 229.165L184.37 247.759L203.68 245.496L188.673 256.29L192.885 273.666L179.985 261.292L170.244 277.352L172.087 258.396L155.764 254.184L175.073 249.011Z" fill="#FFE9DC"/>
<path d="M320.422 235.101L310.735 217.574L327.137 228.55L341.283 215.214L335.679 232.83L349.426 244.262L331.691 242.027L333.454 260.728L323.625 244.415L308.012 250.772L320.422 235.101Z" fill="#FFE9DC"/>
<path d="M304.807 422.326L315.176 405.193L313.833 424.883L332.444 430.503L314.379 434.422L311.317 452.037L304.417 435.547L289.083 446.394L298.328 429.743L285.036 419.375L304.807 422.326Z" fill="#FFE9DC"/>
<path d="M250.177 259.151C250.177 262.508 247.455 265.23 244.098 265.23C240.741 265.23 238.019 262.508 238.019 259.151C238.019 255.794 240.741 253.072 244.098 253.072C247.455 253.072 250.177 255.793 250.177 259.151Z" fill="#FFE9DC"/>
<path d="M172.403 202.117C172.403 205.474 169.681 208.196 166.324 208.196C162.967 208.196 160.245 205.474 160.245 202.117C160.245 198.76 162.967 196.038 166.324 196.038C169.682 196.038 172.403 198.759 172.403 202.117Z" fill="#F7607D"/>
<path d="M216.743 290.081C216.743 293.438 214.022 296.16 210.664 296.16C207.307 296.16 204.585 293.438 204.585 290.081C204.585 286.724 207.307 284.002 210.664 284.002C214.022 284.003 216.743 286.724 216.743 290.081Z" fill="#BD6EEB"/>
<path d="M359.954 170.114C363.311 170.114 366.033 167.392 366.033 164.035C366.033 160.678 363.311 157.956 359.954 157.956C356.597 157.956 353.875 160.678 353.875 164.035C353.875 167.392 356.597 170.114 359.954 170.114Z" fill="#BD6EEB"/>
<path d="M408.227 357.843C408.227 361.2 405.506 363.922 402.148 363.922C398.791 363.922 396.069 361.2 396.069 357.843C396.069 354.486 398.791 351.764 402.148 351.764C405.505 351.764 408.227 354.485 408.227 357.843Z" fill="#FFE9DC"/>
</g>
<defs>
<clipPath id="clip0_1_9614">
<rect width="512" height="512" fill="white"/>
</clipPath>
</defs>
</svg>